<?xml version="1.0" standalone="no"?>
<!DOCTYPE svg PUBLIC "-//W3C//DTD SVG 20010904//EN"
 "http://www.w3.org/TR/2001/REC-SVG-20010904/DTD/svg10.dtd">
<svg version="1.0" xmlns="http://www.w3.org/2000/svg"
 width="900.000000pt" height="597.000000pt" viewBox="0 0 900.000000 597.000000"
 preserveAspectRatio="xMidYMid meet">
<metadata>
Created by potrace 1.10, written by Peter Selinger 2001-2011
</metadata>
<g transform="translate(0.000000,597.000000) scale(0.100000,-0.100000)"
fill="#2052ff" stroke="none">
<path d="M5165 4910 c-373 -5 -380 -5 -377 -25 9 -68 24 -262 25 -325 3 -192
-25 -376 -94 -608 -11 -40 -19 -76 -15 -79 3 -3 21 2 40 11 19 9 41 16 50 16
8 0 30 6 48 14 65 28 100 35 313 67 70 11 340 6 382 -7 l22 -6 3 463 c2 300
-1 468 -7 474 -6 6 -143 8 -390 5z"/>
<path d="M3380 3891 c0 -575 4 -1022 9 -1025 5 -3 20 11 33 32 14 21 41 54 60
73 19 20 50 56 69 80 33 44 278 275 374 354 27 22 78 61 114 87 36 26 71 51
76 55 6 5 38 26 72 47 55 34 93 80 93 113 0 4 11 35 24 68 38 97 67 228 92
415 24 179 10 517 -26 650 -7 25 -14 51 -16 58 -3 9 -109 12 -489 12 l-485 0
0 -1019z"/>
<path d="M4845 3490 c-94 -8 -196 -26 -245 -43 -19 -6 -42 -12 -51 -13 -16 -1
-121 -38 -214 -76 -127 -51 -426 -213 -490 -265 -5 -5 -28 -19 -50 -33 -22
-13 -49 -32 -60 -42 -11 -10 -69 -57 -130 -106 -60 -48 -132 -109 -160 -135
l-50 -47 1078 0 c592 0 1077 3 1077 6 0 15 -92 132 -132 169 -52 48 -134 105
-150 105 -6 0 -19 6 -27 14 -9 7 -43 21 -76 31 -33 9 -82 24 -110 33 -74 24
-345 23 -440 -2 -83 -21 -153 -42 -215 -64 -55 -20 -189 -88 -211 -108 -19
-17 -49 -18 -49 -1 0 28 103 119 212 187 85 54 232 127 271 136 18 3 37 10 42
15 27 21 229 59 352 66 130 7 348 -32 408 -73 11 -8 27 -14 36 -14 10 0 31
-12 48 -26 46 -39 58 -28 53 47 -3 51 -8 68 -25 81 -12 10 -27 22 -33 27 -17
14 -160 81 -173 81 -6 0 -19 4 -29 9 -67 35 -291 55 -457 41z"/>
<path d="M3265 2437 c-3 -7 -5 -143 -3 -301 l3 -288 29 -23 c30 -24 93 -39
120 -29 9 3 16 15 16 25 0 15 -7 19 -40 19 -27 0 -47 7 -60 20 -22 22 -21 2
-23 355 -2 210 -3 230 -20 233 -9 2 -19 -3 -22 -11z"/>
<path d="M1242 2398 c-18 -18 -17 -594 1 -601 35 -13 38 6 40 269 2 258 2 259
24 262 14 2 26 -4 33 -17 5 -11 20 -31 33 -45 12 -13 49 -56 82 -96 33 -40 77
-91 98 -114 36 -40 38 -41 52 -21 14 18 46 55 196 229 26 29 48 59 51 67 2 7
11 10 21 6 15 -6 17 -32 17 -271 0 -232 2 -265 16 -270 9 -3 20 -4 25 0 11 7
11 584 0 603 -15 23 -87 -5 -118 -45 -46 -59 -135 -165 -179 -212 -31 -33 -46
-42 -57 -36 -8 5 -65 70 -127 144 -61 74 -121 141 -133 147 -28 16 -60 16 -75
1z"/>
<path d="M6470 2351 c-4 -229 2 -546 9 -551 8 -5 37 -5 73 -1 4 1 7 79 7 174
1 149 3 174 18 185 10 7 49 12 98 12 117 0 115 3 115 -202 0 -154 1 -166 19
-171 10 -2 30 -3 43 0 l23 4 -2 180 c-1 131 -5 184 -15 198 -12 16 -30 20
-120 25 -59 3 -121 1 -138 -4 -38 -11 -42 -4 -44 88 l-1 67 -42 3 c-26 2 -43
-1 -43 -7z"/>
<path d="M7040 2346 c-20 -25 4 -45 48 -43 32 2 37 5 37 27 0 21 -5 25 -36 28
-23 2 -40 -2 -49 -12z"/>
<path d="M7616 2351 c-4 -6 -6 -42 -4 -81 2 -83 -7 -97 -48 -75 -23 12 -51 14
-133 10 -57 -3 -108 -8 -112 -11 -20 -12 -29 -92 -26 -219 4 -188 -5 -180 218
-180 94 0 175 3 180 6 5 3 8 120 7 280 l-3 274 -37 3 c-20 2 -39 -2 -42 -7z
m-16 -191 c22 -14 25 -294 3 -315 -18 -19 -198 -22 -209 -3 -11 17 -12 301 -1
316 11 15 184 17 207 2z"/>
<path d="M4828 2322 l-68 -3 0 -259 c0 -143 3 -260 8 -261 4 -1 23 -2 42 -2
l35 -2 3 85 c1 47 5 91 7 98 3 8 26 12 69 12 73 0 63 8 142 -115 25 -38 53
-73 62 -77 14 -5 60 -1 70 7 2 2 -11 25 -29 51 -18 27 -40 61 -50 75 -22 34
-10 55 41 69 l40 11 0 137 c0 95 -4 143 -12 154 -11 14 -38 17 -153 20 -77 2
-170 2 -207 0z m271 -44 c19 -12 21 -22 21 -115 0 -142 -4 -146 -150 -141 -60
1 -111 5 -114 8 -2 3 -6 61 -7 129 -2 96 1 125 12 133 20 13 212 2 238 -14z"/>
<path d="M2160 2280 c-97 -12 -107 -34 -109 -229 -2 -149 8 -201 46 -230 24
-19 39 -21 205 -21 198 0 217 5 237 62 6 17 11 100 11 185 0 170 -9 204 -58
225 -28 12 -252 17 -332 8z m318 -56 c21 -15 22 -21 22 -184 0 -214 14 -200
-200 -200 -119 0 -161 3 -176 14 -17 13 -19 28 -19 181 0 216 -11 205 199 205
121 0 156 -3 174 -16z"/>
<path d="M3521 2282 c-6 -2 -11 -12 -11 -23 0 -18 10 -19 203 -19 247 0 247 0
247 -93 0 -34 -4 -67 -8 -73 -5 -8 -70 -10 -207 -9 -110 2 -208 -1 -217 -7
-15 -7 -18 -22 -18 -82 0 -42 6 -89 15 -108 26 -64 40 -67 262 -68 109 0 204
-1 211 0 9 0 12 49 12 211 l0 211 -29 29 c-20 20 -40 29 -63 30 -142 3 -387 4
-397 1z m434 -285 c3 -12 5 -52 3 -87 l-3 -65 -171 -3 c-161 -2 -172 -1 -198
19 -25 19 -27 26 -24 83 l3 61 175 5 c96 3 183 7 192 8 11 1 20 -7 23 -21z"/>
<path d="M4131 2277 c-14 -14 -15 -357 0 -409 16 -61 41 -68 234 -68 96 0 175
-4 186 -10 23 -13 26 -80 6 -120 -12 -25 -14 -25 -172 -30 -152 -5 -160 -6
-160 -25 0 -19 8 -20 135 -23 145 -3 207 7 237 40 17 18 18 46 18 332 0 304 0
311 -20 311 -19 0 -20 -8 -25 -201 -4 -150 -9 -205 -19 -217 -11 -15 -37 -17
-177 -17 -220 0 -204 -19 -204 239 0 160 -3 200 -14 204 -7 3 -19 0 -25 -6z"/>
<path d="M2654 2266 c-3 -7 -4 -102 -2 -209 3 -181 5 -198 24 -224 l21 -28
196 -3 195 -2 26 31 26 31 0 209 c0 202 -1 209 -20 209 -19 0 -20 -7 -20 -197
-1 -161 -3 -202 -16 -218 -14 -18 -29 -20 -177 -23 -154 -3 -164 -2 -190 18
l-27 21 0 200 c0 172 -2 199 -15 199 -9 0 -18 -6 -21 -14z"/>
<path d="M5482 2200 c-76 -4 -105 -9 -112 -20 -15 -24 -13 -343 3 -364 10 -14
34 -18 123 -23 69 -4 117 -2 130 5 11 6 36 7 59 3 22 -3 50 -5 63 -3 l22 3 0
200 -1 199 -47 0 c-26 0 -54 -4 -62 -10 -8 -5 -19 -5 -25 -1 -18 14 -47 16
-153 11z m176 -46 c21 -14 22 -22 22 -158 0 -175 2 -172 -122 -171 -48 0 -92
5 -97 10 -5 6 -11 79 -12 163 -3 126 -1 155 11 162 26 16 173 12 198 -6z"/>
<path d="M6018 2203 c-54 -3 -70 -8 -78 -23 -12 -23 -18 -325 -7 -357 7 -19
18 -22 92 -28 47 -4 128 -4 180 0 107 8 119 16 113 83 -3 35 -5 37 -38 37 -31
0 -35 -3 -38 -30 -6 -50 -16 -55 -118 -55 -82 0 -95 2 -104 19 -5 11 -10 80
-10 155 0 167 -1 166 114 166 92 0 113 -10 118 -55 3 -27 6 -30 38 -30 31 0
35 3 38 29 2 15 -2 41 -8 57 -11 25 -18 29 -54 30 -22 1 -70 2 -106 3 -36 1
-95 0 -132 -1z"/>
<path d="M7040 2000 c0 -110 3 -201 8 -201 26 -5 58 -6 67 -3 6 3 10 79 10
204 l0 200 -42 0 -43 0 0 -200z"/>
</g>
</svg>
